<?xml version="1.0" encoding="UTF-8"?>
<svg id="Camada_1" data-name="Camada 1" xmlns="http://www.w3.org/2000/svg" xmlns:xlink="http://www.w3.org/1999/xlink" viewBox="0 0 1128.53 1119.29">
  <defs>
    <style>
      .cls-1 {
        filter: url(#drop-shadow-2);
      }
      .cls-1, .cls-2, .cls-3 {
        fill: #1e4135;
      }
      .cls-4 {
        fill: #945f2c;
      }
      .cls-3 {
        filter: url(#drop-shadow-1);
      }
    </style>
    <filter id="drop-shadow-1" x="128.85" y="241.66" width="833.5" height="633.44" filterUnits="userSpaceOnUse">
      <feOffset dx="0" dy="0"/>
      <feGaussianBlur result="blur" stdDeviation="3"/>
      <feFlood flood-color="#E2C28D" flood-opacity=".6"/>
      <feComposite in2="blur" operator="in"/>
      <feComposite in="SourceGraphic"/>
    </filter>
    <filter id="drop-shadow-2" x="128.85" y="241.66" width="833.5" height="633.44" filterUnits="userSpaceOnUse">
      <feOffset dx="0" dy="0"/>
      <feGaussianBlur result="blur-2" stdDeviation="3"/>
      <feFlood flood-color="#E2C28D" flood-opacity=".6"/>
      <feComposite in2="blur-2" operator="in"/>
      <feComposite in="SourceGraphic"/>
    </filter>
  </defs>
  <g>
    <path class="cls-4" d="M913.26,364.8c0,34.44,155.3,189.72,189.74,189.72-34.45,0-189.74,155.29-189.74,189.89,0-34.6-155.36-189.89-189.81-189.89,34.46,0,189.81-155.29,189.81-189.72Z"/>
    <path class="cls-4" d="M181.85,483.62c-46.85-86.38-166.41-52.93-166.41,32.72,0,96.06,124.02,145.04,165.88,234.39l.54,1.24.71-1.24c41.84-89.35,165.88-138.33,165.88-234.39,0-85.65-119.54-119.1-166.59-32.72Z"/>
  </g>
  <path class="cls-4" d="M661.46,138.18c-29.43,0-54.85,17.25-66.75,42.08-9.27,11.15-23.9,16.02-38.5,19.21,3.38-17.91,7.4-37.54,21.34-49.16,24.89-11.9,42.07-37.26,42.07-66.63,0-40.91-33.11-74.03-74.01-74.03s-73.91,33.12-73.91,74.03c0,29.37,17.18,54.73,42.07,66.63,12,8.82,17.37,30.46,21.11,49.13-14.56-3.19-28.98-8.04-38.39-19.18-11.91-24.83-37.2-42.08-66.63-42.08-40.89,0-74.03,33.12-74.03,74.03s33.14,73.98,74.03,73.98c29.43,0,57.46-19.99,69.51-44.81,10.19-11.46,23.44-14.17,38.67-17.01,1.39,20.9.75,43.58-2.46,56.8-15.05,42.93-52.78,94.26-72.94,111.66,27.37-23.6,138.57-23.6,166.06,0-20.26-17.39-60.72-71.46-72.89-111.66-3.95-16.2-3.45-46.28-3.19-56.97,15.46,2.95,28.91,5.59,39.38,17.18,11.89,24.82,40.04,44.81,69.47,44.81,40.79,0,73.91-33.14,73.91-73.98s-33.12-74.03-73.91-74.03Z"/>
  <path class="cls-4" d="M690.89,933.17c0-83.82-108.17-126.59-144.69-204.56l-.62-1.05-.6,1.05c-36.5,77.98-144.69,120.74-144.69,204.56,0,70.08,92.73,97.1,137.94,38.47.94-2.95-.09,18.64-3.21,30.82-10.8,35.9-49.81,88.28-68.7,104.66,26.15-22.61,132.4-22.61,158.55,0-18.9-16.38-56.03-66.94-68.71-104.69-2.63-10.48-4.22-21.06-4.93-31.64,44.14,63.65,139.66,33.82,139.66-37.63Z"/>
  <g>
    <path class="cls-3" d="M128.85,241.66c72.77,48.45,144.43,98.31,215.03,149.62,70.81,50.99,140.64,103.31,210.27,155.87,69.29,52.98,138.39,106.25,206.5,160.83,68.35,54.25,135.56,109.98,201.7,167.12-72.79-48.4-144.47-98.25-215.05-149.57-70.81-51.02-140.62-103.31-210.23-155.89-69.29-53.04-138.39-106.29-206.48-160.87-68.35-54.27-135.59-109.97-201.74-167.11Z"/>
    <path class="cls-1" d="M962.34,241.66c-72.75,48.45-144.43,98.31-215.01,149.62-70.81,50.99-140.64,103.31-210.27,155.87-69.31,52.98-138.41,106.25-206.52,160.83-68.32,54.25-135.55,109.98-201.7,167.12,72.79-48.4,144.47-98.25,215.05-149.57,70.81-51.02,140.64-103.31,210.25-155.89,69.29-53.04,138.37-106.29,206.48-160.87,68.32-54.27,135.56-109.97,201.72-167.11Z"/>
  </g>
  <g>
    <g>
      <path class="cls-2" d="M923.35,373.03c6.54,21.36,44.04,65.57,81.25,102.77,37.2,37.2,81.41,74.71,102.78,81.24-21.37,6.53-65.58,44.05-102.78,81.26-37.2,37.22-74.71,81.47-81.25,102.89-6.54-21.42-44.06-65.68-81.28-102.89-37.21-37.21-81.44-74.73-102.82-81.26,21.37-6.53,65.6-44.04,102.82-81.24,37.22-37.2,74.74-81.41,81.28-102.77M923.35,367.32c0,34.44-155.36,189.72-189.81,189.72,34.46,0,189.81,155.29,189.81,189.89,0-34.6,155.3-189.89,189.74-189.89-34.45,0-189.74-155.29-189.74-189.72h0Z"/>
      <path class="cls-2" d="M272.52,436.66c21.7,0,43.14,8.13,58.84,22.3,16.88,15.25,26.18,36.52,26.18,59.89,0,25.24-8.34,48.58-26.24,73.46-15.87,22.06-36.74,41.91-58.83,62.92-30.88,29.37-62.8,59.73-80.43,96.98-17.63-37.25-49.55-67.61-80.43-96.97-43.75-41.61-85.07-80.92-85.07-136.39,0-23.38,9.29-44.65,26.17-59.9,15.69-14.17,37.13-22.3,58.81-22.3,33.33,0,62.33,18.21,79.55,49.96l.88,1.62.88-1.62c17.29-31.75,46.34-49.96,79.7-49.96M272.52,435.66c-30.24,0-61.41,15.3-80.57,50.48-19.08-35.18-50.22-50.48-80.43-50.48-43.98,0-85.99,32.43-85.99,83.2,0,96.06,124.02,145.04,165.88,234.39l.54,1.24.71-1.24c41.84-89.35,165.88-138.33,165.88-234.39,0-50.77-42.01-83.2-86.01-83.2h0Z"/>
    </g>
    <path class="cls-2" d="M555.69,732.19c15.41,32.47,43.22,58.95,70.13,84.56,38.14,36.3,74.17,70.59,74.17,118.95,0,20.34-8.09,38.85-22.79,52.12-13.67,12.34-32.34,19.42-51.24,19.42-11.97,0-23.87-2.86-34.41-8.26-11.56-5.93-21.45-14.75-29.41-26.22l-2.06-2.97.24,3.61c.73,10.88,2.39,21.58,4.96,31.81v.04s.02.04.02.04c11.43,34.01,41.83,77.28,61.79,98.16-17.49-8.56-47-11.75-71.4-11.75s-53.89,3.19-71.39,11.74c20.86-21.78,52.42-67.07,61.78-98.2,2.52-9.82,4.38-30.44,3.22-31.93l-.34-.41h-.49c-.33,0-.77.14-1.04.78-8.09,10.45-17.94,18.5-29.3,23.93-10.45,4.99-22.15,7.63-33.83,7.63-18.76,0-37.19-6.8-50.56-18.67-14.64-12.99-22.37-30.58-22.37-50.88,0-48.36,36.03-82.64,74.17-118.94,26.91-25.61,54.73-52.09,70.13-84.57M555.68,730.09l-.6,1.05c-36.5,77.98-144.69,120.74-144.69,204.56,0,43.61,35.91,70.54,73.93,70.54,23.08,0,46.94-9.93,64.02-32.07.06-.19.11-.27.15-.27.65,0-.44,19.68-3.37,31.09-10.8,35.9-49.81,88.28-68.7,104.66,13.07-11.31,46.17-16.96,79.27-16.96s66.2,5.65,79.27,16.96c-18.9-16.38-56.03-66.94-68.71-104.69-2.63-10.48-4.22-21.06-4.93-31.64,16.8,24.23,41.05,34.91,64.64,34.91,38.38,0,75.02-28.29,75.02-72.54,0-83.82-108.17-126.59-144.69-204.56l-.62-1.05h0Z"/>
    <path class="cls-2" d="M555.69,13.17c40.26,0,73.02,32.76,73.02,73.03,0,14-3.99,27.6-11.54,39.33-7.35,11.42-17.71,20.55-29.96,26.4l-.11.05-.1.08c-14.59,12.17-18.52,33-21.68,49.74l-.28,1.49,1.48-.32c13.78-3.01,29.2-7.69,39.05-19.54l.08-.1.05-.11c5.86-12.23,15.01-22.58,26.44-29.94,11.76-7.57,25.38-11.57,39.41-11.57,40.2,0,72.91,32.76,72.91,73.03s-32.71,72.98-72.91,72.98c-13.92,0-28.02-4.47-40.76-12.93-12.11-8.04-21.99-19.16-27.81-31.31l-.06-.13-.1-.11c-10.78-11.93-24.94-14.63-39.94-17.49l-1.16-.22-.03,1.18c-.44,18.27-.24,43.03,3.22,57.23v.03s.01.03.01.03c10.8,35.67,43.7,82.41,65.68,104.99-18.33-8.97-49.31-12.32-74.91-12.32s-56.61,3.35-74.89,12.34c21.06-21.8,52.27-66.41,65.79-104.97l.02-.05v-.05c3.05-12.53,4-34.42,2.5-57.1l-.07-1.12-1.11.21c-14.69,2.74-28.56,5.33-39.24,17.33l-.09.1-.06.12c-5.91,12.17-15.81,23.29-27.89,31.32-12.73,8.46-26.81,12.93-40.72,12.93-40.27,0-73.03-32.74-73.03-72.98s32.76-73.03,73.03-73.03c14.01,0,27.62,4,39.34,11.57,11.39,7.35,20.52,17.71,26.38,29.94l.06.12.08.1c10.04,11.87,25.32,16.53,38.94,19.51l1.5.33-.3-1.5c-4.14-20.67-9.61-41-21.5-49.74l-.08-.06-.08-.04c-12.25-5.85-22.61-14.98-29.96-26.4-7.55-11.72-11.54-25.32-11.54-39.33,0-40.27,32.71-73.03,72.91-73.03M555.69,12.17c-40.79,0-73.91,33.12-73.91,74.03,0,29.37,17.18,54.73,42.07,66.63,12,8.82,17.37,30.46,21.11,49.13-14.56-3.19-28.98-8.04-38.39-19.18-11.91-24.83-37.2-42.08-66.63-42.08-40.89,0-74.03,33.12-74.03,74.03s33.14,73.98,74.03,73.98c29.43,0,57.46-19.99,69.51-44.81,10.19-11.46,23.44-14.17,38.67-17.01,1.39,20.9.75,43.58-2.46,56.8-15.05,42.93-52.78,94.26-72.94,111.66,13.69-11.8,48.33-17.7,82.98-17.7s69.33,5.9,83.07,17.7c-20.26-17.39-60.72-71.46-72.89-111.66-3.95-16.2-3.45-46.28-3.19-56.97,15.46,2.95,28.91,5.59,39.38,17.18,11.89,24.82,40.04,44.81,69.47,44.81,40.79,0,73.91-33.14,73.91-73.98s-33.12-74.03-73.91-74.03c-29.43,0-54.85,17.25-66.75,42.08-9.27,11.15-23.9,16.02-38.5,19.21,3.38-17.91,7.4-37.54,21.34-49.16,24.89-11.9,42.07-37.26,42.07-66.63,0-40.91-33.11-74.03-74.02-74.03h0Z"/>
  </g>
</svg>